<svg xmlns="http://www.w3.org/2000/svg" width="60" height="60" viewBox="0 0 60 60">
  <g id="download_1_" data-name="download (1)" transform="translate(-2 -2)">
    <path id="Path_52" data-name="Path 52" d="M43.535,37H48a1,1,0,0,0,1-1V33.576A4.993,4.993,0,0,0,47.96,24.1c-.39-8.651-6.3-15.219-14.312-16.014A16.264,16.264,0,0,0,32,8a16.443,16.443,0,0,0-1.657.083c-8.006.8-13.913,7.366-14.3,16.014A5,5,0,0,0,17,34a4.875,4.875,0,0,0,1.211-.16A15.632,15.632,0,0,0,25,40.383v.232c-2.7.512-6.344,1.6-6.916,3.787L7.592,49.087A1,1,0,0,0,7,50V62H9V50.648l9.385-4.19c1.167,2.649,4.973,6.568,9.907,7.991.108.032.218.06.327.089.269.071.538.138.813.193.213.043.429.074.645.107.2.03.4.066.6.087a11.724,11.724,0,0,0,2.648,0c.2-.021.4-.057.6-.087.216-.033.432-.064.645-.107.275-.055.544-.122.813-.193.109-.029.219-.057.327-.089,4.934-1.423,8.74-5.342,9.907-7.991L55,50.648V62h2V50a1,1,0,0,0-.592-.913L45.916,44.4C45.344,42.216,41.7,41.127,39,40.615v-.232A15.383,15.383,0,0,0,43.535,37ZM27,41.454V41.22c.033.011.068.018.1.029.062.02.127.034.19.053q.6.181,1.208.314c.163.036.329.066.494.1q.483.088.972.149c.185.023.37.047.557.064q.625.055,1.256.063c.075,0,.146.012.221.012s.146-.01.22-.011q.63-.008,1.256-.063c.188-.017.372-.041.557-.064.327-.04.65-.089.972-.149.165-.031.331-.06.494-.1q.614-.134,1.208-.314c.063-.019.128-.033.19-.053.034-.011.069-.018.1-.029V44.7l-5,7.5-5-7.5V41.454ZM47,35H45.091c.248-.374.479-.762.7-1.16A4.875,4.875,0,0,0,47,34ZM18.051,23.839c.029-.439.076-.872.137-1.3.008-.054.014-.109.022-.163.069-.448.154-.889.257-1.32,0-.023.01-.046.016-.069a14.08,14.08,0,0,1,9.438-10.383c.058-.018.118-.03.177-.046.366-.107.737-.2,1.117-.281.172-.034.349-.053.524-.081.277-.045.552-.1.836-.124A13.911,13.911,0,0,1,32,10a14.486,14.486,0,0,1,1.468.074l.048.007a13.675,13.675,0,0,1,11.378,8.874c.023.06.047.12.069.18.12.321.224.653.324.987.055.187.112.372.16.562.054.208.1.422.145.635.066.309.131.618.181.936.016.1.027.206.041.308.057.414.1.831.133,1.258a.134.134,0,0,0,0,.02c-3.295.665-7.484-.922-10.677-4.114a16.017,16.017,0,0,1-2.564-3.345,1.04,1.04,0,0,0-1.734,0,16.017,16.017,0,0,1-2.564,3.345c-3.063,3.062-7.12,4.673-10.361,4.176C18.05,23.882,18.05,23.86,18.051,23.839ZM50,29a3.013,3.013,0,0,1-3.321,2.981c.157-.391.293-.794.423-1.2.027-.085.058-.168.084-.253.108-.358.2-.723.288-1.093.037-.157.076-.314.109-.472.066-.319.124-.641.174-.968.038-.24.069-.48.1-.722.031-.267.06-.534.08-.806.008-.1.024-.2.031-.307A3.007,3.007,0,0,1,50,29ZM14,29a3.007,3.007,0,0,1,2.035-2.841c.006.1.023.2.031.307.02.272.049.539.08.806.029.242.06.482.1.722.05.326.107.649.174.968.033.159.072.315.109.472.087.369.18.735.288,1.093.026.085.057.168.084.253.13.407.266.81.423,1.2A3.016,3.016,0,0,1,14,29Zm5.487,2.917c-.189-.411-.365-.83-.518-1.261-.05-.141-.094-.285-.141-.428-.134-.414-.254-.834-.355-1.261-.034-.144-.069-.288-.1-.434-.093-.445-.165-.9-.223-1.353-.017-.135-.04-.267-.054-.4-.029-.285-.032-.574-.047-.861,3.832.468,8.312-1.312,11.774-4.774a18.078,18.078,0,0,0,2.017-2.4,18.085,18.085,0,0,0,2.018,2.4A15.418,15.418,0,0,0,44.369,26a9.987,9.987,0,0,0,1.584-.127c-.015.3-.018.606-.049.906-.014.136-.037.268-.054.4-.058.456-.129.908-.223,1.353-.031.146-.065.29-.1.434q-.153.641-.355,1.261c-.047.143-.09.287-.141.428-.154.431-.329.85-.518,1.261A14.473,14.473,0,0,1,42.59,35H32v2h8.58a13.328,13.328,0,0,1-5.364,2.621c-.115.026-.227.064-.342.088h-.009a14.618,14.618,0,0,1-5.73,0h-.007c-.117-.024-.229-.062-.345-.088A13.638,13.638,0,0,1,19.487,31.917ZM25,42.651V45a1.006,1.006,0,0,0,.168.555l4.827,7.24c-.108-.02-.218-.032-.325-.056-.058-.012-.116-.027-.173-.04-5.389-1.268-9.4-6.227-9.485-7.678,0-.014-.006-.027-.007-.04C20.038,44.52,21.337,43.4,25,42.651ZM44,44.98c0,.014-.007.026-.007.04-.09,1.451-4.1,6.41-9.485,7.678-.058.013-.115.028-.173.04-.107.023-.217.035-.325.056l4.827-7.24A1.014,1.014,0,0,0,39,45V42.651C42.663,43.4,43.962,44.52,44,44.98Z"/>
    <rect id="Rectangle_52" data-name="Rectangle 52" width="2" height="4" transform="translate(16 58)"/>
    <rect id="Rectangle_53" data-name="Rectangle 53" width="2" height="4" transform="translate(46 58)"/>
    <path id="Path_53" data-name="Path 53" d="M29,31a3,3,0,0,0-6,0h2a1,1,0,0,1,2,0Z"/>
    <path id="Path_54" data-name="Path 54" d="M38,30a1,1,0,0,1,1,1h2a3,3,0,0,0-6,0h2A1,1,0,0,1,38,30Z"/>
    <path id="Path_55" data-name="Path 55" d="M3,16h8.7l2.748,1.832A1,1,0,0,0,16,17V3a1,1,0,0,0-1-1H3A1,1,0,0,0,2,3V15A1,1,0,0,0,3,16ZM4,4H14V15.131l-1.445-.963A1.006,1.006,0,0,0,12,14H4Z"/>
    <path id="Path_56" data-name="Path 56" d="M61,2H52a1,1,0,0,0-1,1V16.7l-1.832,2.748A1,1,0,0,0,50,21H61a1,1,0,0,0,1-1V3A1,1,0,0,0,61,2ZM60,19H51.869l.963-1.445A1.006,1.006,0,0,0,53,17V4h7Z"/>
    <rect id="Rectangle_54" data-name="Rectangle 54" width="6" height="2" transform="translate(6 6)"/>
    <rect id="Rectangle_55" data-name="Rectangle 55" width="6" height="2" transform="translate(6 10)"/>
    <rect id="Rectangle_56" data-name="Rectangle 56" width="3" height="2" transform="translate(55 6)"/>
    <rect id="Rectangle_57" data-name="Rectangle 57" width="3" height="2" transform="translate(55 10)"/>
    <rect id="Rectangle_58" data-name="Rectangle 58" width="3" height="2" transform="translate(55 14)"/>
  </g>
</svg>
