<svg xmlns="http://www.w3.org/2000/svg" width="56" height="60" viewBox="0 0 56 60">
  <g id="download_2_" data-name="download (2)" transform="translate(-7 -2)">
    <path id="Path_57" data-name="Path 57" d="M43,31h8a1,1,0,0,0,1-1V22a1,1,0,0,0-1-1H43a1,1,0,0,0-1,1v8A1,1,0,0,0,43,31Zm1-8h6v6H44Z"/>
    <rect id="Rectangle_59" data-name="Rectangle 59" width="9" height="2" transform="translate(12 21)"/>
    <rect id="Rectangle_60" data-name="Rectangle 60" width="9" height="2" transform="translate(12 25)"/>
    <rect id="Rectangle_61" data-name="Rectangle 61" width="14" height="2" transform="translate(12 36)"/>
    <rect id="Rectangle_62" data-name="Rectangle 62" width="14" height="2" transform="translate(12 40)"/>
    <rect id="Rectangle_63" data-name="Rectangle 63" width="14" height="2" transform="translate(12 44)"/>
    <rect id="Rectangle_64" data-name="Rectangle 64" width="14" height="2" transform="translate(12 48)"/>
    <path id="Path_58" data-name="Path 58" d="M50,44h1l-1.8,2.4,1.6,1.2,3-4a1,1,0,0,0,0-1.2l-3-4-1.6,1.2L51,42H50a7.008,7.008,0,0,0-7,7h2A5.006,5.006,0,0,1,50,44Z"/>
    <path id="Path_59" data-name="Path 59" d="M49,52H48l1.8-2.4-1.6-1.2-3,4a1,1,0,0,0,0,1.2l3,4,1.6-1.2L48,54h1a7.008,7.008,0,0,0,7-7H54A5.006,5.006,0,0,1,49,52Z"/>
    <path id="Path_60" data-name="Path 60" d="M57,36.527V17c0-.014-.007-.025-.008-.038a1.014,1.014,0,0,0-.069-.344c-.006-.013-.015-.024-.021-.037a.99.99,0,0,0-.115-.2l-11-14A1,1,0,0,0,45,2H19a1,1,0,0,0-.786.382l-11,14a1.018,1.018,0,0,0-.115.2c-.006.013-.016.023-.021.037a.99.99,0,0,0-.069.344A.234.234,0,0,0,7,17V53a1,1,0,0,0,1,1H36.37A13.989,13.989,0,1,0,57,36.527ZM53.942,16H38.754L35.326,4h9.189ZM27,18H37v6.586l-1.293-1.293a1,1,0,0,0-1.414,0L32,25.586l-2.293-2.293a1,1,0,0,0-1.414,0L27,24.586ZM33.246,4l3.429,12H27.326L30.755,4ZM19.486,4h9.189L25.246,16H10.058Zm16.1,48H9V18H25v9a1,1,0,0,0,1.707.707L29,25.414l2.293,2.293a1,1,0,0,0,1.414,0L35,25.414l2.293,2.293A1,1,0,0,0,38,28a.987.987,0,0,0,.383-.076A1,1,0,0,0,39,27V18H55V35.358c-.053-.025-.109-.042-.162-.066-.339-.156-.685-.3-1.038-.426-.121-.044-.24-.092-.361-.133-.354-.119-.715-.218-1.08-.309-.123-.031-.244-.068-.368-.1-.375-.082-.758-.142-1.144-.193-.114-.015-.227-.04-.341-.052A13.976,13.976,0,0,0,35,48c0,.43.026.856.065,1.279.011.116.024.231.038.346q.059.5.153,1c.017.091.031.182.05.273C35.383,51.267,35.473,51.636,35.582,52ZM49,60a12.009,12.009,0,0,1-11.266-7.908c-.068-.187-.143-.371-.2-.56-.065-.209-.111-.425-.165-.638-.042-.169-.093-.335-.127-.505-.052-.258-.085-.523-.12-.787-.018-.131-.045-.261-.058-.393A11.789,11.789,0,0,1,37,48,12.013,12.013,0,0,1,49,36c.364,0,.722.023,1.077.055.112.01.223.023.334.036.258.03.513.071.765.117.108.02.217.036.324.059.313.067.62.147.923.238.152.046.3.1.453.151q.252.085.5.183c.165.065.329.131.491.2.147.065.289.138.433.209q.426.211.837.457A11.987,11.987,0,0,1,49,60Z"/>
  </g>
</svg>
