<svg xmlns="http://www.w3.org/2000/svg" width="60" height="60" viewBox="0 0 60 60">
  <g id="download" transform="translate(-2 -2)">
    <path id="Path_37" data-name="Path 37" d="M6.122,52.521A.991.991,0,0,0,6,53c0,.921,1.171,2.079,2.691,3.049A1,1,0,0,0,8,57c0,1.6,2.839,5,6,5h2l.083,0C19.768,61.692,23,57.955,23,54H41c0,3.955,3.232,7.692,6.917,8L48,62h2c3.161,0,6-3.4,6-5a1,1,0,0,0-.691-.951C56.829,55.079,58,53.921,58,53a.991.991,0,0,0-.122-.479C60.049,51.414,62,49.789,62,48a1,1,0,0,0-1-1H50V37a1,1,0,0,0-1-1H15a1,1,0,0,0-1,1V47H3a1,1,0,0,0-1,1C2,49.789,3.951,51.414,6.122,52.521ZM53,52a1,1,0,0,0,0,2h1.766A9.975,9.975,0,0,1,50,56a1,1,0,0,0,0,2h3.407A4.887,4.887,0,0,1,50,60H48.043C45.4,59.756,43,56.908,43,54a6.118,6.118,0,0,1,.078-.913,5.294,5.294,0,0,1,.145-.635c.026-.094.047-.191.078-.282a4.95,4.95,0,0,1,.255-.6c.035-.07.068-.141.106-.209a4.49,4.49,0,0,1,.366-.55c.041-.053.082-.1.125-.155a4.318,4.318,0,0,1,.465-.472c.051-.044.1-.086.158-.128a4.531,4.531,0,0,1,.535-.369c.076-.043.156-.08.235-.119a4.926,4.926,0,0,1,.558-.249c.131-.046.272-.077.41-.114.16-.043.315-.092.483-.12A6.37,6.37,0,0,1,48,49H59.454A12.091,12.091,0,0,1,53,52ZM48,38v2.873A4.015,4.015,0,0,1,45.126,38ZM16,38h2.874A4.015,4.015,0,0,1,16,40.873Zm0,4.91A6.007,6.007,0,0,0,20.91,38H43.09A6.007,6.007,0,0,0,48,42.91V47a7.959,7.959,0,0,0-1.082.081c-.075.01-.15.019-.224.031a7.443,7.443,0,0,0-.951.222c-.082.025-.161.055-.242.083a6.76,6.76,0,0,0-.738.3c-.081.039-.162.076-.241.118a6.745,6.745,0,0,0-.681.423c-.1.067-.19.135-.282.207a6.508,6.508,0,0,0-.609.54c-.079.08-.151.166-.225.25a6.55,6.55,0,0,0-.422.528c-.051.072-.108.139-.156.213a6.693,6.693,0,0,0-.441.8c-.035.074-.07.147-.1.223a7.08,7.08,0,0,0-.335.951c0,.01-.008.019-.01.029H22.741c0-.01-.008-.019-.01-.029a7.08,7.08,0,0,0-.335-.951c-.033-.076-.067-.149-.1-.223a6.693,6.693,0,0,0-.441-.8c-.049-.074-.1-.141-.156-.213a6.729,6.729,0,0,0-.422-.528c-.075-.084-.147-.17-.225-.25a6.384,6.384,0,0,0-.609-.54c-.092-.072-.186-.14-.282-.207a6.57,6.57,0,0,0-.681-.423c-.079-.042-.16-.079-.241-.118a6.76,6.76,0,0,0-.738-.3c-.081-.028-.159-.058-.242-.083a7.278,7.278,0,0,0-.951-.222c-.074-.012-.149-.021-.224-.031A7.959,7.959,0,0,0,16,47ZM15,49h1a6.094,6.094,0,0,1,1,.086,4.939,4.939,0,0,1,.483.12c.138.036.279.067.41.114a4.755,4.755,0,0,1,.558.249c.079.039.159.076.235.119a4.532,4.532,0,0,1,.535.369c.053.042.107.083.158.128a4.411,4.411,0,0,1,.465.472c.043.051.084.1.125.155a4.49,4.49,0,0,1,.366.55c.038.068.071.139.106.209a4.734,4.734,0,0,1,.255.6c.031.091.052.188.078.282a5.294,5.294,0,0,1,.145.635A5.814,5.814,0,0,1,21,54c0,2.908-2.4,5.756-5.043,6H14a4.915,4.915,0,0,1-3.414-2H14a1,1,0,0,0,0-2,9.979,9.979,0,0,1-4.766-2H11a1,1,0,0,0,0-2,12.091,12.091,0,0,1-6.454-3Z"/>
    <path id="Path_38" data-name="Path 38" d="M32,49a4,4,0,1,0-4-4A4,4,0,0,0,32,49Zm0-6a2,2,0,1,1-2,2A2,2,0,0,1,32,43Z"/>
    <rect id="Rectangle_34" data-name="Rectangle 34" width="2" height="2" transform="translate(31 2)"/>
    <rect id="Rectangle_35" data-name="Rectangle 35" width="2" height="2" transform="translate(24.293 4.293) rotate(-45)"/>
    <rect id="Rectangle_36" data-name="Rectangle 36" width="2" height="2" transform="translate(36.879 4.293) rotate(-45)"/>
    <path id="Path_39" data-name="Path 39" d="M39,13a7,7,0,1,0-11,5.736V23a1,1,0,0,0,1,1h6a1,1,0,0,0,1-1V18.736A6.992,6.992,0,0,0,39,13ZM27,13a5,5,0,1,1,8,3.974V12H33v5.878c-.065.013-.13.027-.195.038a4.718,4.718,0,0,1-.5.052,5.105,5.105,0,0,1-.606,0,4.994,4.994,0,0,1-.5-.052c-.065-.01-.13-.025-.195-.038V12H29v4.974A4.977,4.977,0,0,1,27,13Zm3,9V19.7a6.942,6.942,0,0,0,.779.181c.039.007.078.012.117.018l.015,0,.142.022a6.257,6.257,0,0,0,1.893,0c.048-.006.094-.014.142-.022l.015,0,.117-.018A6.891,6.891,0,0,0,34,19.7V22Z"/>
    <rect id="Rectangle_37" data-name="Rectangle 37" width="2" height="2" transform="translate(22 7)"/>
    <rect id="Rectangle_38" data-name="Rectangle 38" width="2" height="2" transform="translate(40 7)"/>
    <path id="Path_40" data-name="Path 40" d="M20,34V29l2.4,1.8,1.2-1.6-4-3a1,1,0,0,0-1.2,0l-4,3,1.2,1.6L18,29v5Z"/>
    <path id="Path_41" data-name="Path 41" d="M33,34V29l2.4,1.8,1.2-1.6-4-3a1,1,0,0,0-1.2,0l-4,3,1.2,1.6L31,29v5Z"/>
    <path id="Path_42" data-name="Path 42" d="M47,34V29l2.4,1.8,1.2-1.6-4-3a1,1,0,0,0-1.2,0l-4,3,1.2,1.6L45,29v5Z"/>
  </g>
</svg>
