<svg id="Group_1" data-name="Group 1" xmlns="http://www.w3.org/2000/svg" width="84" height="28" viewBox="0 0 84 28">
  <path id="Path_6" data-name="Path 6" d="M1201,183h-20a6.006,6.006,0,0,1-6-6v-8a2,2,0,0,1,4,0v8a2,2,0,0,0,2,2h20a2,2,0,0,1,0,4Z" transform="translate(-1119 -159)" fill="#23232c"/>
  <path id="Path_7" data-name="Path 7" d="M1165,171a6.006,6.006,0,0,0-6,6v2h-2a2,2,0,0,1-2-2v-8a2,2,0,0,0-4,0v8a2,2,0,0,1-2,2h-2v-2a6,6,0,1,0-6,6h2v2a2,2,0,0,0,4,0v-2h2a5.965,5.965,0,0,1,8,0h8a6,6,0,0,0,0-12Zm-22,8h-2a2,2,0,1,1,2-2Zm22,0h-2v-2a2,2,0,1,1,2,2Z" transform="translate(-1119 -159)" fill="#23232c"/>
  <path id="Path_8" data-name="Path 8" d="M1145,167a2,2,0,0,1-2-2,6.006,6.006,0,0,1,6-6h20a2,2,0,0,1,0,4h-20a2,2,0,0,0-2,2A2,2,0,0,1,1145,167Z" transform="translate(-1119 -159)" fill="#23232c"/>
  <path id="Path_9" data-name="Path 9" d="M1125,183a6,6,0,0,1,0-12h2a2,2,0,0,1,4,0v6A6.006,6.006,0,0,1,1125,183Zm0-8a2,2,0,1,0,2,2v-2Z" transform="translate(-1119 -159)" fill="#23232c"/>
</svg>
