<svg xmlns="http://www.w3.org/2000/svg" width="57.516" height="60" viewBox="0 0 57.516 60">
  <g id="Group_4" data-name="Group 4" transform="translate(-654.027 -334.551)">
    <path id="Path_27" data-name="Path 27" d="M682.417,334.551a4.673,4.673,0,0,0-1.342.651,5.666,5.666,0,0,0-1.121,1.173c-.271.364-.526.739-.8,1.1a.31.31,0,0,1-.22.082c-1.765,0-3.531-.02-5.3.018a2.449,2.449,0,0,1-1.376-.4c-.559-.339-1.131-.657-1.7-.983q-.774-.444-1.552-.884a.456.456,0,0,0-.179-.062,13.02,13.02,0,0,0-2.251.029c-1.13.1-2.235.334-3.348.531l-.863.152a6.343,6.343,0,0,0,.574.918c.515.58,1.074,1.121,1.612,1.682.446.465.906.919,1.327,1.407.718.834,1.4,1.7,2.117,2.531a8.4,8.4,0,0,1,1.2,2.148c.134.3.283.585.434.9l1.317-.494c1.4-.525,2.79-1.056,4.19-1.569a1.49,1.49,0,0,1,.611-.054,14.816,14.816,0,0,1,3.316.754q1.307.418,2.637.761a5.411,5.411,0,0,0,1.878.191c0-.1.005-.2,0-.308-.027-.544-.023-1.093-.093-1.631a4.926,4.926,0,0,1,.368-2.037,24.334,24.334,0,0,1,1.843-4.428,3.308,3.308,0,0,0,.225-.434,1.628,1.628,0,0,0,.07-.476c0-.045-.1-.111-.161-.133-1.005-.351-2.011-.7-3.017-1.043a1.813,1.813,0,0,1-.184-.087Z" fill="#23232c"/>
    <path id="Path_28" data-name="Path 28" d="M691.586,367.576a4.5,4.5,0,0,0-1.276.907,18.627,18.627,0,0,0-1.986,2.276c-.368.482-.767.941-1.142,1.417a.542.542,0,0,0-.068.262,1.4,1.4,0,0,0,.014.192c0,.843.03,1.687-.011,2.528a10.4,10.4,0,0,1-.255,1.461.417.417,0,0,1-.13.191.191.191,0,0,1-.34-.105c-.154-.64-.316-1.279-.454-1.923-.045-.21-.143-.229-.315-.187a3.035,3.035,0,0,0-1.132.612,11.751,11.751,0,0,0-1.934,1.978,5.876,5.876,0,0,1-2.012,1.491,28.061,28.061,0,0,1-3.426,1.483.672.672,0,0,0-.215.131,7.581,7.581,0,0,0-1.914,2.629,12.139,12.139,0,0,0-.827,2.7c-.115.633-.223,1.269-.3,1.908-.07.6-.1,1.2-.136,1.8-.047.729-.087,1.459-.13,2.189,0,.071,0,.142,0,.232.6-.11,1.173-.215,1.75-.323q1.1-.2,2.2-.413.993-.187,1.986-.373c.58-.108,1.158-.218,1.739-.317.134-.023.158-.058.127-.2a11.767,11.767,0,0,1-.325-2.755,5.972,5.972,0,0,1,.263-1.806c.117.214.218.385.308.562.491.969.978,1.94,1.472,2.908a.639.639,0,0,0,.19.223c.285.2.574.4.87.585a.48.48,0,0,0,.244.043c2.911,0,5.821-.009,8.731.012a6.344,6.344,0,0,1,1.382.239c1.122.266,2.248.526,3.357.843.982.281,1.95.617,2.911.963,1.021.367,2.028.772,3.038,1.169.409.16.809.343,1.272.493l-3.826-9.333a1.555,1.555,0,0,1,1.109.313c.985.8,1.979,1.594,2.992,2.36a17.8,17.8,0,0,0,3.187,1.915c.872.41,1.781.744,2.674,1.11a.25.25,0,0,0,.08,0c-.094-.61-.191-1.215-.28-1.822-.067-.465-.123-.932-.185-1.4-.069-.522-.143-1.043-.207-1.565-.053-.432-.092-.865-.139-1.3-.052-.474-.109-.947-.159-1.421-.038-.355-.068-.711-.1-1.067-.058-.646-.116-1.292-.17-1.939-.02-.235-.034-.472-.045-.708-.018-.365-.026-.732-.049-1.1a.385.385,0,0,0-.092-.2,2.055,2.055,0,0,0-.927-.547c-1.3-.5-2.6-.981-3.892-1.5q-1.748-.708-3.466-1.489-1.419-.644-2.8-1.363c-.831-.432-1.642-.9-2.448-1.381q-.934-.553-1.832-1.169c-.345-.237-.649-.535-.974-.8q-.9-.742-1.8-1.482C691.7,367.663,691.646,367.622,691.586,367.576Z" fill="#23232c"/>
    <path id="Path_29" data-name="Path 29" d="M666.454,365.718c-1.038,0-2.047,0-3.055,0-.309,0-.617.036-.926.037-.144,0-.225.061-.24.188a10.938,10.938,0,0,0-.1,1.1,9.359,9.359,0,0,0,.059,1.071c.038.425.088.85.144,1.273q.113.843.245,1.684c.07.442.167.88.232,1.322a13.064,13.064,0,0,0,1.328,3.821c.567,1.167,1.205,2.3,1.811,3.447a1.117,1.117,0,0,1,.051.126l-.816.068c-.3.026-.61.058-.916.076a.214.214,0,0,1-.158-.081c-.524-.732-1.053-1.462-1.56-2.206a18.971,18.971,0,0,1-1.789-3.213,1.7,1.7,0,0,1-.126-.554c-.054-.8-.087-1.6-.137-2.4-.034-.533-.082-1.066-.128-1.6-.069-.811-.145-1.621-.212-2.432-.037-.443-.059-.887-.09-1.33-.015-.2-.036-.411-.055-.624l-4.475-.654c-.034.24-.073.453-.091.669-.036.449-.063.9-.09,1.348-.045.734-.083,1.469-.132,2.2-.036.533-.08,1.066-.129,1.6-.067.731-.149,1.461-.212,2.193-.041.476-.082.955-.085,1.433-.012,1.39-.022,2.78,0,4.17.012.662.1,1.322.163,1.983.052.546.108,1.093.178,1.638.078.606.164,1.212.266,1.816q.174,1.027.382,2.05.178.884.394,1.757a35.135,35.135,0,0,0,1.479,4.592c.266.665.589,1.308.894,1.957a.411.411,0,0,0,.172.157c.554.322,1.072.065,1.593-.109,1.008-.338,2.011-.7,3.026-1.012a6.057,6.057,0,0,0,1.472-.754c.854-.546,1.727-1.061,2.572-1.618a10.835,10.835,0,0,0,1.228-.96c.509-.455,1-.934,1.473-1.424a24.18,24.18,0,0,0,2.2-2.651,29.177,29.177,0,0,0,2.587-4.39.987.987,0,0,0-.674-1.494,8,8,0,0,0-.956-.214,2.171,2.171,0,0,1-.845-.328,9.784,9.784,0,0,1-3-3.122,15.778,15.778,0,0,1-1.813-4.315c-.246-.93-.462-1.871-.643-2.816-.155-.816-.241-1.645-.357-2.469C666.549,366.392,666.5,366.063,666.454,365.718Z" fill="#23232c"/>
    <path id="Path_30" data-name="Path 30" d="M706.008,373.791c-.866-.4-1.707-.868-2.542-1.335a22.1,22.1,0,0,1-3.77-2.68c-.9-.788-1.731-1.654-2.588-2.491a5.307,5.307,0,0,1-.419-.49c-.142-.179-.3-.163-.4.056-.077.175-.149.353-.21.534-.193.571-.381,1.143-.568,1.715-.06.183-.154.235-.347.162a3.566,3.566,0,0,1-1.342-.854c-.541-.571-1.058-1.166-1.581-1.755a.177.177,0,0,1-.017-.144c.162-.579.329-1.157.5-1.734.268-.926.562-1.844.8-2.777s.423-1.855.6-2.79a8.172,8.172,0,0,0,.139-1.447c.014-2.356.009-4.712,0-7.068a.646.646,0,0,1,.316-.582c.448-.3.9-.6,1.349-.891a6.768,6.768,0,0,1,1-.6q1.844-.772,3.711-1.484a31.638,31.638,0,0,1,4.459-1.34c.742-.166,1.49-.3,2.239-.428.386-.067.779-.091,1.168-.136.123-.014.189.029.2.161.041.656.1,1.312.127,1.968.029.632.03,1.265.049,1.9a2.96,2.96,0,0,0,.046.533c.146.686.282,1.375.464,2.052.371,1.374.752,2.746,1.161,4.109a7.911,7.911,0,0,1,.45,2.941,3.633,3.633,0,0,1-.444,1.561.741.741,0,0,1-.693.394c-.741.021-1.481.1-2.232.157-.033.422-.07.819-.092,1.216-.024.415-.03.832-.047,1.247-.012.293-.027.586-.047.879q-.081,1.178-.169,2.355c-.023.32-.052.641-.083.96a.254.254,0,0,0,.156.308c.621.279,1.24.564,1.852.864a1.208,1.208,0,0,1,.5.363,4.327,4.327,0,0,1,.552,2.209,15.014,15.014,0,0,1-.079,1.627c-.054.727-.124,1.452-.189,2.2A22.721,22.721,0,0,1,706.008,373.791Zm-1.756-12.908c-.031.253-.064.5-.091.755-.073.658-.142,1.316-.215,1.974-.057.509-.121,1.017-.17,1.526a.247.247,0,0,0,.1.179c.451.307.907.605,1.389.924a18.678,18.678,0,0,0,.451-5.358Z" fill="#23232c"/>
    <path id="Path_31" data-name="Path 31" d="M664.711,364.674c-.429.011-.86-.02-1.289-.039-.265-.011-.53-.026-.793-.052-.5-.049-.993-.105-1.489-.162s-1.008-.1-1.506-.186c-.774-.137-1.546-.29-2.312-.47-.441-.1-.947-.11-1.209-.6a1.76,1.76,0,0,0-.141-.188,4.954,4.954,0,0,1-.822-1.6,16.3,16.3,0,0,1-.4-1.935,20.079,20.079,0,0,1-.251-2.381c-.031-1.243.017-2.488.031-3.732,0-.014,0-.029,0-.043.057-.668.116-1.336.171-2q.068-.8.13-1.6c.059-.769.134-1.537.169-2.307.036-.819.034-1.64.047-2.46a1.226,1.226,0,0,0-.026-.233c-.076-.411-.157-.822-.232-1.233-.164-.908-.329-1.815-.486-2.724a7.831,7.831,0,0,1-.262-2.256,17.179,17.179,0,0,0,.013-1.851,6.151,6.151,0,0,1,.969.062,14.4,14.4,0,0,1,3.49,1.194c1.187.612,2.386,1.206,3.544,1.87.825.473,1.6,1.04,2.38,1.584.192.134.491.22.437.564,0,.022.07.061.112.085a2.284,2.284,0,0,1,.243.134,9.7,9.7,0,0,1,3.212,3.872,1.582,1.582,0,0,1,0,1.407,26.512,26.512,0,0,0-1.226,2.967c-.471,1.418-.857,2.864-1.254,4.305a6.583,6.583,0,0,0-.416,2.693c.074.537.069,1.085.093,1.629q.05,1.128.087,2.255c.019.532.024,1.065.048,1.6.025.572.065,1.142.1,1.718C665.461,364.6,665.087,364.664,664.711,364.674Zm-5.156-10.435c.037.778.073,1.559.176,2.329.118.885.311,1.76.465,2.641a.26.26,0,0,0,.284.244.375.375,0,0,0,.231-.116.668.668,0,0,0,.185-.484c.029-.895.078-1.789.124-2.683.025-.472.045-.945.089-1.415.059-.643.137-1.285.212-1.926.038-.324.067-.651.136-.968a3.277,3.277,0,0,1,.238-.63c.431-.957.9-1.9,1.29-2.871a4.548,4.548,0,0,0,.31-1.407,1.372,1.372,0,0,0-1.028-1.563.258.258,0,0,0-.3.075,6.639,6.639,0,0,0-1.337,2.069,13.1,13.1,0,0,0-.855,3.151c-.073.45-.094.908-.139,1.362-.019.192-.039.384-.058.576l-.028,0C659.55,353.163,659.528,353.7,659.555,354.239Z" fill="#23232c"/>
    <path id="Path_32" data-name="Path 32" d="M697.035,339.654c.314-.606.6-1.192.92-1.763a2.067,2.067,0,0,0,.237-.851c.039-.462.067-.924.1-1.409h-.217c-1.174,0-2.348-.016-3.522.008a7.576,7.576,0,0,0-1.438.176c-.857.185-1.715.383-2.554.639a7.909,7.909,0,0,0-3.5,2.2,8.415,8.415,0,0,0-1.611,2.16,15.9,15.9,0,0,0-1.237,3.345,2.949,2.949,0,0,0-.053,1.265c.673.065,1.333.128,1.993.193a1.522,1.522,0,0,1,.421.054c.213.087.316-.022.422-.168.488-.672.973-1.345,1.467-2.012a2.153,2.153,0,0,1,.292-.271l.078.033-.3,2.367c.613.415,1.248.842,1.88,1.275q1.734,1.188,3.464,2.383a.226.226,0,0,0,.261.033c1.387-.605,2.773-1.215,4.17-1.8.9-.375,1.82-.716,2.739-1.051,1.117-.408,2.233-.82,3.366-1.181,1.322-.421,2.662-.787,3.993-1.184a.366.366,0,0,0,.2-.177q.966-2.256,1.918-4.518c.19-.451.376-.9.571-1.353a2.528,2.528,0,0,1,.219-.39.819.819,0,0,0-.375-1.364,15.16,15.16,0,0,0-1.891-.647,2.961,2.961,0,0,0-.9-.014c-.3.013-.609.065-.914.078a12.338,12.338,0,0,0-2.752.469,15.652,15.652,0,0,0-3.727,1.663c-.619.363-1.226.747-1.852,1.1a6.906,6.906,0,0,1-.865.353c-.29.112-.582.219-.874.326A.934.934,0,0,1,697.035,339.654Z" fill="#23232c"/>
    <path id="Path_33" data-name="Path 33" d="M668.9,373.408a1.4,1.4,0,0,0,.927-.356c.211-.153.388-.353.588-.523a.308.308,0,0,1,.19-.065c.3.007.6.027.9.039q.6.024,1.2.044c.871.03,1.743.056,2.614.088.629.024,1.258.057,1.887.085a4.665,4.665,0,0,1,.943.058,3.614,3.614,0,0,1,.923.428c.655.4,1.294.822,1.937,1.239a.243.243,0,0,0,.288.006c.378-.224.762-.438,1.14-.662a.319.319,0,0,0,.114-.148.971.971,0,0,0-.258-1.024c-.554-.449-1.1-.908-1.661-1.35a.668.668,0,0,0-.382-.139c-.7,0-1.408.039-2.112.031s-1.392-.03-2.085-.087a7.315,7.315,0,0,1-2.328-.546c-.236-.1-.276-.294-.334-.477-.236-.747-.462-1.5-.672-2.253a1.326,1.326,0,0,1-.014-.554c.012-.073.154-.168.244-.177.492-.044.989-.039,1.478-.1.561-.071,1.116-.191,1.673-.3a.342.342,0,0,0,.178-.443,4.434,4.434,0,0,0-1.232-1.316q-.878-.7-1.742-1.41c-.179-.147-.352-.037-.5.02-.5.2-.989.429-1.48.651a3.787,3.787,0,0,1-.62.284,1.2,1.2,0,0,1-.553-.03c-.369-.092-.729-.223-1.095-.325a.6.6,0,0,0-.319-.012.357.357,0,0,0-.224.181c-.174.575-.332,1.154-.486,1.735a1.6,1.6,0,0,0-.043.421c0,.04.073.091.123.117.507.258,1.026.494,1.522.772a3.253,3.253,0,0,1,1.354,1.37,2.25,2.25,0,0,1,.186,1.538.59.59,0,0,1-.2.262,15.556,15.556,0,0,1-1.58,1.345C668.76,372.244,668.878,372.811,668.9,373.408Z" fill="#23232c"/>
    <path id="Path_34" data-name="Path 34" d="M679.651,357.175a.8.8,0,0,0,.675-.136c.464-.311.945-.6,1.425-.883a2.591,2.591,0,0,1,1.2-.334,5.5,5.5,0,0,1,.832,0c.231.022.356-.127.494-.249.275-.241.532-.5.8-.748a.3.3,0,0,1,.2-.085c.5.042,1.006.1,1.508.149.275.03.549.07.842.108a1.72,1.72,0,0,0-.689-.836,6.911,6.911,0,0,0-2.373-1.066c-.465-.127-.935-.238-1.409-.325a1.24,1.24,0,0,0-.5.068,11.969,11.969,0,0,0-2.864,1.075.274.274,0,0,0-.139.181C679.648,355.124,679.651,356.151,679.651,357.175Z" fill="#23232c"/>
    <path id="Path_35" data-name="Path 35" d="M670.807,357.587c.3-.294.6-.557.856-.859a.811.811,0,0,0-.43-1.3,15.143,15.143,0,0,1-2.845-1.123l-.1-.052a1.883,1.883,0,0,0,.206,1,3.718,3.718,0,0,0,1.1,1.364C669.992,356.928,670.385,357.245,670.807,357.587Z" fill="#23232c"/>
  </g>
</svg>
